<?xml version="1.0"?>

<!-- Created with Inkscape (http://www.inkscape.org/) -->
<svg xmlns:inkscape="http://www.inkscape.org/namespaces/inkscape" xmlns:rdf="http://www.w3.org/1999/02/22-rdf-syntax-ns#" xmlns="http://www.w3.org/2000/svg" xmlns:cc="http://creativecommons.org/ns#" xmlns:dc="http://purl.org/dc/elements/1.1/" xmlns:sodipodi="http://sodipodi.sourceforge.net/DTD/sodipodi-0.dtd" xmlns:svg="http://www.w3.org/2000/svg" xmlns:ns1="http://sozi.baierouge.fr" xmlns:xlink="http://www.w3.org/1999/xlink" id="svg2" sodipodi:docname="notebook1_sergio_luiz_ar_02.svg" viewBox="0 0 419.54 309.77" sodipodi:version="0.32" version="1.0" inkscape:output_extension="org.inkscape.output.svg.inkscape" inkscape:version="0.46" sodipodi:docbase="/home/sergio" width="419.54" height="309.77">
  <sodipodi:namedview id="base" bordercolor="#666666" inkscape:pageshadow="2" inkscape:guide-bbox="true" pagecolor="#ffffff" inkscape:zoom="1.2477820" inkscape:window-width="1024" showgrid="false" borderopacity="1.0" inkscape:current-layer="layer1" inkscape:cx="364.31933" inkscape:cy="644.74533" showguides="true" inkscape:window-y="25" inkscape:window-x="0" inkscape:window-height="693" inkscape:pageopacity="0.0" inkscape:document-units="px"></sodipodi:namedview>
  <g id="layer1" inkscape:label="Layer 1" inkscape:groupmode="layer" transform="translate(-142.41 -266.25)">
    <g id="g13349">
      <path id="path1318" style="fill-rule:evenodd;fill:#0c0d0d;fill-opacity:.46429" d="m457.69 531.24l-49.36 36.13-11.19 8.65h-13.74l-13.23-3.56-192.35-49.87-32.56-8.65-0.51-3.05 5.6-2.55 33.07-10.18 194.38 26.46 56.99-0.5 22.9 7.12z"></path>
      <path id="path1316" sodipodi:nodetypes="cccccccccccscccccccccccccccc" style="fill-rule:evenodd;stroke:#000000;stroke-width:1px;fill:#404348" d="m144.32 498.16c0.56 1.82 1.12 3.64 1.68 5.45 2.09 0.28 4.19 0.56 6.29 0.84 86.64 22.83 169.73 44.63 237.04 60.84 4.89-1.26 9.78-2.52 14.68-3.78 16.92-12.17 33.84-24.33 50.76-36.5l2.1 4.2c2.38-1.68 4.76-3.36 7.13-5.04 13.01-10.07 26.01-20.14 39.02-30.2 0.84-1.82 1.68-3.64 2.52-5.46 0.56-0.42 1.11-0.84 1.67-1.26v-2.51-4.62c-21.39 14.54-42.79 29.09-64.18 43.63h-1.26l-0.84 0.42-0.84 1.68-3.36 1.68h-1.26l-0.42 2.1c-1.53 0.83-3.07 1.67-4.61 2.51h-1.68c-1.4 1.26-2.8 2.52-4.19 3.78l-0.84 1.68c-6.58 4.61-13.15 9.23-19.72 13.84-1.82 2.1-3.64 4.2-5.45 6.29-2.52 0.7-5.04 1.4-7.56 2.1-83.75-19.03-167-39.59-246.68-61.67z"></path>
      <path id="path1320" sodipodi:nodetypes="cccccccccccccccccccccccc" style="fill-rule:evenodd;fill:#ffffff" d="m507.33 478.89c-27.82 18.15-55.64 36.29-83.46 54.44-7.29 5.09-14.58 10.18-21.88 15.27-2.54 2.03-5.09 4.07-7.63 6.11h-7.63c-20.7-2.55-39.86-9.16-60.56-13.74-60.72-14.08-119.41-28.16-182.16-46.82-0.17 1.36-0.34 2.72-0.51 4.07 82.6 20.7 165.2 41.39 247.81 62.08 2.37-1.02 4.75-2.03 7.12-3.05 2.04-2.54 4.07-5.09 6.11-7.63 4.75-2.55 9.5-5.09 14.24-7.64 1.36-1.18 2.72-2.37 4.08-3.56 0.84-1.35 1.69-2.71 2.54-4.07 1.36-0.85 2.71-1.7 4.07-2.54l2.55 0.51c0.84-0.85 1.69-1.7 2.54-2.55 0.17-0.68 0.34-1.36 0.51-2.03h2.03l3.57-2.04v-1.53c1.18-0.34 2.37-0.67 3.56-1.01 6.95-4.75 13.91-9.5 20.86-14.25 14.08-10.01 28.16-20.02 42.24-30.02z"></path>
      <path id="path2049" style="fill-rule:evenodd;stroke:#414746;stroke-width:.5;fill:#cecdc9" d="m505.98 478.69l-93.12 62.58-13.23 8.65-6.1 4.08-2.55 0.5-5.6-0.5-5.59 0.5-24.94-6.1-121.61-29.52-72.77-19.33-15.26-4.58-2.55-2.04 1.02-1.52 6.61-2.55 59.54-20.86-6.62 3.05 5.09 2.55 60.05 11.7 7.12-2.03 13.74 2.03 35.62 8.14 1.53 2.55-1.02 1.52 99.73 21.37 10.18 2.04 5.09-3.05 58.52-37.15 0.51-1.53 6.61-0.5z"></path>
      <path id="path2779" style="fill-rule:evenodd;stroke:#59595e;stroke-width:1px;fill:#e0e0e2" d="m276.34 487.34l-23.92 11.7 44.78 9.16 21.37-11.2v-1.52l-42.23-8.14z"></path>
      <path id="path2781" style="fill-rule:evenodd;stroke:#524a50;stroke-width:.5;fill:#cbcbcd" d="m304.83 510.23l-4.58 3.06h-6.1l-48.85-9.67-2.55-2.04 0.51-2.03 4.07-2.04h3.56l53.94 12.72z"></path>
      <path id="path2777" style="fill-rule:evenodd;stroke:#555959;stroke-width:1px;fill:#a5a5a5" d="m266.67 504.13l-11.2 4.58-1.52 2.54 3.56 1.02 6.61 0.51 8.65-3.56 3.57-2.55-2.04-2.03-7.63-0.51z"></path>
      <path id="path4961" style="fill-rule:evenodd;stroke:#000000;stroke-width:1px;fill:#454344" d="m269.72 519.9l5.09 1.53 2.04-1.02 0.5-1.53-6.1-1.52-1.53 2.54z"></path>
      <path id="path4963" style="fill-rule:evenodd;stroke:#000000;stroke-width:1px;fill:#939192" d="m427.44 514l39.18-21.88 8.14-4.07 2.03-4.58-198.45-35.11-54.45 19.84 4.08 3.05 164.35 34.1-3.05 1.01 38.17 7.64zm70.22-35.11zm-3.56 4.58l-48.85 32.05-7.64 3.06h-7.12l-20.36-4.07-83.96-18.32-0.5-3.06-3.57-1.52-43.76-9.67-7.63 1.02-4.58 1.52-60.55-12.72-2.04-1.52 0.51-2.04 78.87-25.95 5.6-0.51 54.95 8.65 124.16 21.88 25.96 5.09 5.59 1.02-0.51 2.03-4.57 3.06z"></path>
      <path id="path4973" sodipodi:nodetypes="ccccc" style="fill-rule:evenodd;fill:#ffffff" d="m475.86 484.05l-34.92 21.97 32.27-18.26 1.69-0.74 0.96-2.97z"></path>
      <path id="path5703" style="fill-rule:evenodd;stroke:#000000;stroke-width:1px;fill:#000000" d="m350.65 277.69l198.71 8.49-45.85 162.19-205.51-29.72 52.65-140.96z"></path>
      <path id="path5701" style="fill-rule:evenodd;stroke:#000000;stroke-width:1px;fill:#ffffff" d="m351.71 277.79l198.71 8.49-45.86 162.19-205.5-29.72 52.65-140.96zm157.1 194.46l52.65-190.22-1.7-4.24-6.8-2.55-13.58-1.7-189.37-6.79-3.4 2.55-58.59 164.74 5.09 5.94 50.95 7.64 2.55-10.19 24.63 4.25-1.7 7.64 1.7 5.1 132.47 19.53 5.1-1.7z"></path>
      <path id="path5710" sodipodi:rx="3.3967218" sodipodi:ry="3.3967218" style="fill:#000000" sodipodi:type="arc" d="m416.95 402.74a3.3967 3.3967 0 1 1 -6.8 0 3.3967 3.3967 0 1 1 6.8 0z" transform="matrix(.52424 0 0 .52424 171.41 234.89)" sodipodi:cy="402.73911" sodipodi:cx="413.5509"></path>
      <path id="path6440" sodipodi:rx="3.3967218" sodipodi:ry="3.3967218" style="fill:#000000" sodipodi:type="arc" d="m416.95 402.74a3.3967 3.3967 0 1 1 -6.8 0 3.3967 3.3967 0 1 1 6.8 0z" transform="matrix(.52424 0 0 .52424 179.71 236.11)" sodipodi:cy="402.73911" sodipodi:cx="413.5509"></path>
      <path id="path6442" sodipodi:rx="3.3967218" sodipodi:ry="3.3967218" style="fill:#000000" sodipodi:type="arc" d="m416.95 402.74a3.3967 3.3967 0 1 1 -6.8 0 3.3967 3.3967 0 1 1 6.8 0z" transform="matrix(.52424 0 0 .52424 187.03 237.15)" sodipodi:cy="402.73911" sodipodi:cx="413.5509"></path>
      <path id="path6444" sodipodi:rx="3.3967218" sodipodi:ry="3.3967218" style="fill:#000000" sodipodi:type="arc" d="m416.95 402.74a3.3967 3.3967 0 1 1 -6.8 0 3.3967 3.3967 0 1 1 6.8 0z" transform="matrix(.52424 0 0 .52424 193.58 238.34)" sodipodi:cy="402.73911" sodipodi:cx="413.5509"></path>
      <path id="path6446" style="fill-rule:evenodd;fill:#78797b" d="m285.64 429.08l3.2 7.2 3.2-0.8v5.6l-4.8-3.2-1.6-8.8z"></path>
      <path id="path7174" style="fill-rule:evenodd;stroke:#000000;stroke-width:1px;fill:#1c1b21" d="m297.5 431.25l-2.59-0.39-1.79 3.98-0.8 1.59 0.4 3.39 0.4 1.99 2.39 0.8 0.8-1.19v-2.2l-0.4-1.79v-2.19l1.59-2.39v-1.6z"></path>
      <path id="path7176" style="fill-rule:evenodd;fill:#6a6a6b" d="m296.94 438.47l43.25 7.1v3.22l-41.31-7.1-1.94-3.22z"></path>
      <path id="path7904" style="fill-rule:evenodd;stroke:#000000;stroke-width:1px;fill:#424041" d="m342.77 448.79l-0.64-4.51 3.87-4.52 23.89 3.87-1.29 4.52v4.52l-25.83-3.88z"></path>
      <path id="path7906" sodipodi:nodetypes="ccccc" style="fill-rule:evenodd;fill:#f4f3ee;fill-opacity:.41071" d="m345.64 440.61l-1.67 1.9 24.34 3.68 1.42-1.66-24.09-3.92z"></path>
      <path id="path8634" style="fill-rule:evenodd;fill:#6a6a6b" d="m369.57 450.48l119.86 19.42v3.32l-119.35-20.7-0.51-2.04z"></path>
      <path id="path9362" style="fill-rule:evenodd;stroke:#000000;stroke-width:1px;fill:#353533" d="m491.29 474.62l-0.87-2.85 0.12-1.97 0.87-3.34 1.73-3.59 3.34 0.49-0.49 2.6-1.49 2.35s-0.62 2.23-0.62 2.72c0 0.5 0.13 2.72 0.13 2.72l0.37 1.36-3.09-0.49z"></path>
      <path id="path9364" sodipodi:rx="1.4729594" sodipodi:ry="1.4729594" style="fill:#030000" sodipodi:type="arc" d="m487.55 459.09a1.473 1.473 0 1 1 -2.95 0 1.473 1.473 0 1 1 2.95 0z" transform="matrix(1.5556 0 0 1.5556 -270.04 -255.05)" sodipodi:cy="459.08688" sodipodi:cx="486.07657"></path>
      <path id="path10092" sodipodi:rx="3.3967218" sodipodi:ry="3.3967218" style="fill:#000000" sodipodi:type="arc" d="m416.95 402.74a3.3967 3.3967 0 1 1 -6.8 0 3.3967 3.3967 0 1 1 6.8 0z" transform="matrix(.52424 0 0 .52424 199.9 239.27)" sodipodi:cy="402.73911" sodipodi:cx="413.5509"></path>
      <path id="path10094" sodipodi:rx="3.3967218" sodipodi:ry="3.3967218" style="fill:#000000" sodipodi:type="arc" d="m416.95 402.74a3.3967 3.3967 0 1 1 -6.8 0 3.3967 3.3967 0 1 1 6.8 0z" transform="matrix(.52424 0 0 .52424 207.51 240.85)" sodipodi:cy="402.73911" sodipodi:cx="413.5509"></path>
      <g id="g11792" transform="matrix(1.136 0 0 0.881 -272.09 -176.69)">
        <path id="path10826" sodipodi:nodetypes="cccccccc" style="fill-rule:evenodd;fill:#5c575b" d="m517.06 722.18l-0.06 0.82 8.56 2.05 0.94-0.36 4.77-3.11-0.07-1.01-8.38-1.37-5.76 2.98z"></path>
        <path id="path10828" sodipodi:nodetypes="ccccccccc" style="fill-rule:evenodd;fill:#fefefd" d="m525.56 724.03l5.7-3.24-0.09 0.73-4.85 3.05-0.73 0.29-0.72-0.29-7.73-1.81 0.07-0.68 8.35 1.95z"></path>
        <path id="path11556" sodipodi:nodetypes="cccccccc" style="fill-rule:evenodd;fill:#5c575b" d="m507.26 719.73l-0.05 0.82 8.56 2.05 0.94-0.36 4.77-3.11-0.08-1.01-8.38-1.37-5.76 2.98z"></path>
        <path id="path11558" sodipodi:nodetypes="ccccccccc" style="fill-rule:evenodd;fill:#fefefd" d="m515.77 721.58l5.69-3.24-0.08 0.73-4.86 3.05-0.72 0.29-0.72-0.29-7.73-1.81 0.07-0.68 8.35 1.95z"></path>
        <path id="path11560" sodipodi:nodetypes="cccccccc" style="fill-rule:evenodd;fill:#5c575b" d="m497.16 717.59l-0.05 0.82 8.56 2.05 0.94-0.36 4.77-3.11-0.08-1.01-8.38-1.37-5.76 2.98z"></path>
        <path id="path11562" sodipodi:nodetypes="ccccccccc" style="fill-rule:evenodd;fill:#fefefd" d="m505.66 719.43l5.7-3.23-0.08 0.72-4.86 3.06-0.72 0.29-0.72-0.29-7.73-1.81 0.07-0.69 8.34 1.95z"></path>
        <path id="path11564" sodipodi:nodetypes="cccccccc" style="fill-rule:evenodd;fill:#5c575b" d="m487.06 715.45l-0.05 0.81 8.56 2.06 0.94-0.36 4.76-3.11-0.07-1.01-8.38-1.37-5.76 2.98z"></path>
        <path id="path11566" sodipodi:nodetypes="ccccccccc" style="fill-rule:evenodd;fill:#fefefd" d="m495.56 717.29l5.7-3.23-0.09 0.72-4.85 3.06-0.72 0.28-0.72-0.28-7.73-1.81 0.07-0.69 8.34 1.95z"></path>
        <path id="path11568" sodipodi:nodetypes="cccccccc" style="fill-rule:evenodd;fill:#5c575b" d="m477.57 713l-0.05 0.81 8.56 2.06 0.94-0.36 4.77-3.11-0.08-1.01-8.38-1.37-5.76 2.98z"></path>
        <path id="path11570" sodipodi:nodetypes="ccccccccc" style="fill-rule:evenodd;fill:#fefefd" d="m486.08 714.84l5.7-3.23-0.09 0.72-4.86 3.06-0.72 0.29-0.72-0.29-7.73-1.81 0.07-0.69 8.35 1.95z"></path>
        <path id="path11572" sodipodi:nodetypes="cccccccc" style="fill-rule:evenodd;fill:#5c575b" d="m510.32 726.16l-0.05 0.82 8.56 2.05 0.94-0.36 4.77-3.11-0.08-1.01-8.38-1.37-5.76 2.98z"></path>
        <path id="path11574" sodipodi:nodetypes="ccccccccc" style="fill-rule:evenodd;fill:#fefefd" d="m518.83 728l5.7-3.23-0.09 0.72-4.86 3.06-0.72 0.29-0.72-0.29-7.73-1.81 0.07-0.69 8.35 1.95z"></path>
        <path id="path11576" sodipodi:nodetypes="cccccccc" style="fill-rule:evenodd;fill:#5c575b" d="m500.53 723.71l-0.06 0.82 8.57 2.05 0.93-0.36 4.77-3.11-0.07-1.01-8.38-1.37-5.76 2.98z"></path>
        <path id="path11578" sodipodi:nodetypes="ccccccccc" style="fill-rule:evenodd;fill:#fefefd" d="m509.03 725.56l5.7-3.24-0.09 0.73-4.85 3.05-0.72 0.29-0.73-0.29-7.73-1.81 0.08-0.68 8.34 1.95z"></path>
        <path id="path11580" sodipodi:nodetypes="cccccccc" style="fill-rule:evenodd;fill:#5c575b" d="m490.43 721.57l-0.06 0.81 8.56 2.06 0.94-0.36 4.77-3.11-0.07-1.01-8.38-1.37-5.76 2.98z"></path>
        <path id="path11582" sodipodi:nodetypes="ccccccccc" style="fill-rule:evenodd;fill:#fefefd" d="m498.93 723.41l5.7-3.23-0.09 0.72-4.85 3.06-0.72 0.29-0.73-0.29-7.73-1.81 0.08-0.69 8.34 1.95z"></path>
        <path id="path11584" sodipodi:nodetypes="cccccccc" style="fill-rule:evenodd;fill:#5c575b" d="m480.33 719.43l-0.06 0.81 8.56 2.06 0.94-0.37 4.77-3.1-0.07-1.01-8.38-1.38-5.76 2.99z"></path>
        <path id="path11586" sodipodi:nodetypes="ccccccccc" style="fill-rule:evenodd;fill:#fefefd" d="m488.83 721.27l5.7-3.23-0.09 0.72-4.85 3.05-0.73 0.29-0.72-0.29-7.73-1.8 0.07-0.69 8.35 1.95z"></path>
        <path id="path11588" sodipodi:nodetypes="cccccccc" style="fill-rule:evenodd;fill:#5c575b" d="m470.84 716.98l-0.05 0.81 8.56 2.06 0.93-0.36 4.77-3.11-0.07-1.01-8.38-1.37-5.76 2.98z"></path>
        <path id="path11590" sodipodi:nodetypes="ccccccccc" style="fill-rule:evenodd;fill:#fefefd" d="m479.34 718.82l5.7-3.23-0.09 0.72-4.85 3.06-0.72 0.28-0.73-0.28-7.73-1.81 0.08-0.69 8.34 1.95z"></path>
        <path id="path11592" sodipodi:nodetypes="cccccccc" style="fill-rule:evenodd;fill:#5c575b" d="m503.59 730.75l-0.05 0.82 8.56 2.05 0.94-0.36 4.76-3.11-0.07-1.01-8.38-1.37-5.76 2.98z"></path>
        <path id="path11594" sodipodi:nodetypes="ccccccccc" style="fill-rule:evenodd;fill:#fefefd" d="m512.09 732.6l5.7-3.24-0.09 0.73-4.85 3.05-0.72 0.29-0.73-0.29-7.73-1.81 0.08-0.68 8.34 1.95z"></path>
        <path id="path11596" sodipodi:nodetypes="cccccccc" style="fill-rule:evenodd;fill:#5c575b" d="m493.8 728.3l-0.06 0.82 8.56 2.05 0.94-0.36 4.77-3.11-0.07-1.01-8.38-1.37-5.76 2.98z"></path>
        <path id="path11598" sodipodi:nodetypes="ccccccccc" style="fill-rule:evenodd;fill:#fefefd" d="m502.3 730.15l5.7-3.24-0.09 0.73-4.86 3.05-0.72 0.29-0.72-0.29-7.73-1.81 0.07-0.68 8.35 1.95z"></path>
        <path id="path11600" sodipodi:nodetypes="cccccccc" style="fill-rule:evenodd;fill:#5c575b" d="m483.7 726.16l-0.06 0.82 8.56 2.05 0.94-0.36 4.77-3.11-0.07-1.01-8.38-1.37-5.76 2.98z"></path>
        <path id="path11602" sodipodi:nodetypes="ccccccccc" style="fill-rule:evenodd;fill:#fefefd" d="m492.2 728l5.7-3.23-0.09 0.72-4.86 3.06-0.72 0.29-0.72-0.29-7.73-1.81 0.07-0.69 8.35 1.95z"></path>
        <path id="path11604" sodipodi:nodetypes="cccccccc" style="fill-rule:evenodd;fill:#5c575b" d="m473.59 724.02l-0.05 0.81 8.56 2.06 0.94-0.36 4.77-3.11-0.08-1.01-8.37-1.37-5.77 2.98z"></path>
        <path id="path11606" sodipodi:nodetypes="ccccccccc" style="fill-rule:evenodd;fill:#fefefd" d="m482.1 725.86l5.7-3.23-0.09 0.72-4.86 3.06-0.72 0.28-0.72-0.28-7.73-1.81 0.07-0.69 8.35 1.95z"></path>
        <path id="path11608" sodipodi:nodetypes="cccccccc" style="fill-rule:evenodd;fill:#5c575b" d="m464.11 721.57l-0.06 0.81 8.56 2.06 0.94-0.36 4.77-3.11-0.07-1.01-8.38-1.37-5.76 2.98z"></path>
        <path id="path11610" sodipodi:nodetypes="ccccccccc" style="fill-rule:evenodd;fill:#fefefd" d="m472.61 723.41l5.7-3.23-0.09 0.72-4.86 3.06-0.72 0.29-0.72-0.29-7.73-1.81 0.07-0.69 8.35 1.95z"></path>
        <path id="path11612" sodipodi:nodetypes="cccccccc" style="fill-rule:evenodd;fill:#5c575b" d="m565.33 734.25l-0.05 0.82 8.56 2.05 0.94-0.36 4.76-3.11-0.07-1.01-8.38-1.37-5.76 2.98z"></path>
        <path id="path11614" sodipodi:nodetypes="ccccccccc" style="fill-rule:evenodd;fill:#fefefd" d="m573.83 736.09l5.7-3.23-0.09 0.72-4.85 3.06-0.72 0.29-0.72-0.29-7.73-1.81 0.07-0.69 8.34 1.95z"></path>
        <path id="path11616" sodipodi:nodetypes="cccccccc" style="fill-rule:evenodd;fill:#5c575b" d="m555.54 731.8l-0.06 0.82 8.56 2.05 0.94-0.36 4.77-3.11-0.07-1.01-8.38-1.37-5.76 2.98z"></path>
        <path id="path11618" sodipodi:nodetypes="ccccccccc" style="fill-rule:evenodd;fill:#fefefd" d="m564.04 733.65l5.7-3.24-0.09 0.73-4.85 3.05-0.73 0.29-0.72-0.29-7.73-1.81 0.07-0.68 8.35 1.95z"></path>
        <path id="path11620" sodipodi:nodetypes="cccccccc" style="fill-rule:evenodd;fill:#5c575b" d="m545.44 729.66l-0.06 0.81 8.56 2.06 0.94-0.36 4.77-3.11-0.07-1.01-8.38-1.37-5.76 2.98z"></path>
        <path id="path11622" sodipodi:nodetypes="ccccccccc" style="fill-rule:evenodd;fill:#fefefd" d="m553.94 731.5l5.7-3.23-0.09 0.72-4.85 3.06-0.73 0.29-0.72-0.29-7.73-1.81 0.07-0.69 8.35 1.95z"></path>
        <path id="path11624" sodipodi:nodetypes="cccccccc" style="fill-rule:evenodd;fill:#5c575b" d="m535.34 727.51l-0.06 0.82 8.56 2.06 0.94-0.37 4.77-3.1-0.07-1.01-8.38-1.38-5.76 2.98z"></path>
        <path id="path11626" sodipodi:nodetypes="ccccccccc" style="fill-rule:evenodd;fill:#fefefd" d="m543.84 729.36l5.7-3.23-0.09 0.72-4.86 3.05-0.72 0.29-0.72-0.29-7.73-1.8 0.07-0.69 8.35 1.95z"></path>
        <path id="path11628" sodipodi:nodetypes="cccccccc" style="fill-rule:evenodd;fill:#5c575b" d="m525.85 725.07l-0.06 0.81 8.56 2.06 0.94-0.36 4.77-3.11-0.07-1.01-8.38-1.37-5.76 2.98z"></path>
        <path id="path11630" sodipodi:nodetypes="ccccccccc" style="fill-rule:evenodd;fill:#fefefd" d="m534.35 726.91l5.7-3.23-0.09 0.72-4.85 3.06-0.73 0.28-0.72-0.28-7.73-1.81 0.07-0.69 8.35 1.95z"></path>
        <path id="path11632" sodipodi:nodetypes="cccccccc" style="fill-rule:evenodd;fill:#5c575b" d="m558.6 738.23l-0.06 0.81 8.56 2.06 0.94-0.36 4.77-3.11-0.07-1.01-8.38-1.37-5.76 2.98z"></path>
        <path id="path11634" sodipodi:nodetypes="ccccccccc" style="fill-rule:evenodd;fill:#fefefd" d="m567.1 740.07l5.7-3.23-0.09 0.72-4.85 3.06-0.73 0.29-0.72-0.29-7.73-1.81 0.07-0.69 8.35 1.95z"></path>
        <path id="path11636" sodipodi:nodetypes="cccccccc" style="fill-rule:evenodd;fill:#5c575b" d="m548.8 735.78l-0.05 0.82 8.56 2.05 0.94-0.36 4.77-3.11-0.08-1.01-8.38-1.37-5.76 2.98z"></path>
        <path id="path11638" sodipodi:nodetypes="ccccccccc" style="fill-rule:evenodd;fill:#fefefd" d="m557.31 737.62l5.69-3.23-0.08 0.72-4.86 3.06-0.72 0.29-0.72-0.29-7.73-1.81 0.07-0.69 8.35 1.95z"></path>
        <path id="path11640" sodipodi:nodetypes="cccccccc" style="fill-rule:evenodd;fill:#5c575b" d="m538.7 733.64l-0.05 0.81 8.56 2.06 0.94-0.36 4.77-3.11-0.08-1.01-8.38-1.37-5.76 2.98z"></path>
        <path id="path11642" sodipodi:nodetypes="ccccccccc" style="fill-rule:evenodd;fill:#fefefd" d="m547.2 735.48l5.7-3.23-0.08 0.72-4.86 3.06-0.72 0.28-0.72-0.28-7.73-1.81 0.07-0.69 8.34 1.95z"></path>
        <path id="path11644" sodipodi:nodetypes="cccccccc" style="fill-rule:evenodd;fill:#5c575b" d="m528.6 731.49l-0.05 0.82 8.56 2.05 0.94-0.36 4.76-3.1-0.07-1.01-8.38-1.38-5.76 2.98z"></path>
        <path id="path11646" sodipodi:nodetypes="ccccccccc" style="fill-rule:evenodd;fill:#fefefd" d="m537.1 733.34l5.7-3.23-0.09 0.72-4.85 3.05-0.72 0.29-0.72-0.29-7.73-1.8 0.07-0.69 8.34 1.95z"></path>
        <path id="path11648" sodipodi:nodetypes="cccccccc" style="fill-rule:evenodd;fill:#5c575b" d="m519.11 729.05l-0.05 0.81 8.56 2.06 0.94-0.37 4.77-3.1-0.08-1.01-8.38-1.38-5.76 2.99z"></path>
        <path id="path11650" sodipodi:nodetypes="ccccccccc" style="fill-rule:evenodd;fill:#fefefd" d="m527.62 730.89l5.7-3.23-0.09 0.72-4.86 3.05-0.72 0.29-0.72-0.29-7.73-1.8 0.07-0.69 8.35 1.95z"></path>
        <path id="path11652" sodipodi:nodetypes="cccccccc" style="fill-rule:evenodd;fill:#5c575b" d="m551.86 742.82l-0.05 0.82 8.56 2.05 0.94-0.36 4.77-3.11-0.08-1.01-8.38-1.37-5.76 2.98z"></path>
        <path id="path11654" sodipodi:nodetypes="ccccccccc" style="fill-rule:evenodd;fill:#fefefd" d="m560.37 744.66l5.7-3.23-0.09 0.72-4.86 3.06-0.72 0.29-0.72-0.29-7.73-1.81 0.07-0.69 8.35 1.95z"></path>
        <path id="path11656" sodipodi:nodetypes="cccccccc" style="fill-rule:evenodd;fill:#5c575b" d="m542.07 740.37l-0.06 0.82 8.57 2.05 0.93-0.36 4.77-3.11-0.07-1.01-8.38-1.37-5.76 2.98z"></path>
        <path id="path11658" sodipodi:nodetypes="ccccccccc" style="fill-rule:evenodd;fill:#fefefd" d="m550.57 742.22l5.7-3.24-0.09 0.73-4.85 3.05-0.72 0.29-0.73-0.29-7.73-1.81 0.08-0.68 8.34 1.95z"></path>
        <path id="path11660" sodipodi:nodetypes="cccccccc" style="fill-rule:evenodd;fill:#5c575b" d="m531.97 738.23l-0.06 0.81 8.56 2.06 0.94-0.36 4.77-3.11-0.07-1.01-8.38-1.37-5.76 2.98z"></path>
        <path id="path11662" sodipodi:nodetypes="ccccccccc" style="fill-rule:evenodd;fill:#fefefd" d="m540.47 740.07l5.7-3.23-0.09 0.72-4.85 3.06-0.72 0.29-0.73-0.29-7.73-1.81 0.08-0.69 8.34 1.95z"></path>
        <path id="path11664" sodipodi:nodetypes="cccccccc" style="fill-rule:evenodd;fill:#5c575b" d="m521.87 736.08l-0.06 0.82 8.56 2.06 0.94-0.37 4.77-3.1-0.07-1.01-8.38-1.38-5.76 2.98z"></path>
        <path id="path11666" sodipodi:nodetypes="ccccccccc" style="fill-rule:evenodd;fill:#fefefd" d="m530.37 737.93l5.7-3.23-0.09 0.72-4.85 3.05-0.73 0.29-0.72-0.29-7.73-1.8 0.07-0.69 8.35 1.95z"></path>
        <path id="path11668" sodipodi:nodetypes="cccccccc" style="fill-rule:evenodd;fill:#5c575b" d="m512.38 733.64l-0.05 0.81 8.56 2.06 0.93-0.36 4.77-3.11-0.07-1.01-8.38-1.37-5.76 2.98z"></path>
        <path id="path11670" sodipodi:nodetypes="ccccccccc" style="fill-rule:evenodd;fill:#fefefd" d="m520.88 735.48l5.7-3.23-0.09 0.72-4.85 3.06-0.72 0.28-0.73-0.28-7.73-1.81 0.08-0.69 8.34 1.95z"></path>
        <path id="path11672" sodipodi:nodetypes="cccccccc" style="fill-rule:evenodd;fill:#5c575b" d="m497.15 734.85l-0.06 0.82 8.56 2.05 0.94-0.36 4.77-3.11-0.07-1.01-8.38-1.37-5.76 2.98z"></path>
        <path id="path11674" sodipodi:nodetypes="ccccccccc" style="fill-rule:evenodd;fill:#fefefd" d="m505.65 736.7l5.7-3.24-0.09 0.73-4.86 3.05-0.72 0.29-0.72-0.29-7.73-1.81 0.07-0.68 8.35 1.95z"></path>
        <path id="path11676" sodipodi:nodetypes="cccccccc" style="fill-rule:evenodd;fill:#5c575b" d="m487.35 732.4l-0.05 0.82 8.56 2.05 0.94-0.36 4.76-3.1-0.07-1.01-8.38-1.38-5.76 2.98z"></path>
        <path id="path11678" sodipodi:nodetypes="ccccccccc" style="fill-rule:evenodd;fill:#fefefd" d="m495.85 734.25l5.7-3.23-0.09 0.72-4.85 3.05-0.72 0.29-0.73-0.29-7.73-1.8 0.08-0.69 8.34 1.95z"></path>
        <path id="path11680" sodipodi:nodetypes="cccccccc" style="fill-rule:evenodd;fill:#5c575b" d="m477.25 730.26l-0.06 0.82 8.57 2.05 0.93-0.36 4.77-3.11-0.07-1.01-8.38-1.37-5.76 2.98z"></path>
        <path id="path11682" sodipodi:nodetypes="ccccccccc" style="fill-rule:evenodd;fill:#fefefd" d="m485.75 732.11l5.7-3.24-0.09 0.73-4.85 3.05-0.72 0.29-0.73-0.29-7.73-1.81 0.08-0.68 8.34 1.95z"></path>
        <path id="path11684" sodipodi:nodetypes="cccccccc" style="fill-rule:evenodd;fill:#5c575b" d="m467.15 728.12l-0.06 0.82 8.56 2.05 0.94-0.36 4.77-3.11-0.07-1.01-8.38-1.37-5.76 2.98z"></path>
        <path id="path11686" sodipodi:nodetypes="ccccccccc" style="fill-rule:evenodd;fill:#fefefd" d="m475.65 729.96l5.7-3.23-0.09 0.72-4.85 3.06-0.72 0.29-0.73-0.29-7.73-1.81 0.08-0.69 8.34 1.95z"></path>
        <path id="path11688" sodipodi:nodetypes="cccccccc" style="fill-rule:evenodd;fill:#5c575b" d="m457.66 725.67l-0.05 0.82 8.56 2.05 0.94-0.36 4.76-3.11-0.07-1.01-8.38-1.37-5.76 2.98z"></path>
        <path id="path11690" sodipodi:nodetypes="ccccccccc" style="fill-rule:evenodd;fill:#fefefd" d="m466.16 727.51l5.7-3.23-0.09 0.73-4.85 3.05-0.72 0.29-0.73-0.29-7.73-1.81 0.08-0.69 8.34 1.95z"></path>
        <path id="path11692" sodipodi:nodetypes="cccccccc" style="fill-rule:evenodd;fill:#5c575b" d="m490.41 738.83l-0.05 0.82 8.56 2.05 0.94-0.36 4.76-3.11-0.07-1.01-8.38-1.37-5.76 2.98z"></path>
        <path id="path11694" sodipodi:nodetypes="ccccccccc" style="fill-rule:evenodd;fill:#fefefd" d="m498.91 740.68l5.7-3.24-0.09 0.73-4.85 3.05-0.72 0.29-0.73-0.29-7.72-1.81 0.07-0.68 8.34 1.95z"></path>
        <path id="path11696" sodipodi:nodetypes="cccccccc" style="fill-rule:evenodd;fill:#5c575b" d="m480.62 736.38l-0.06 0.82 8.56 2.05 0.94-0.36 4.77-3.1-0.07-1.02-8.38-1.37-5.76 2.98z"></path>
        <path id="path11698" sodipodi:nodetypes="ccccccccc" style="fill-rule:evenodd;fill:#fefefd" d="m489.12 738.23l5.7-3.24-0.09 0.73-4.85 3.05-0.73 0.29-0.72-0.29-7.73-1.8 0.07-0.69 8.35 1.95z"></path>
        <path id="path11700" sodipodi:nodetypes="cccccccc" style="fill-rule:evenodd;fill:#5c575b" d="m470.52 734.24l-0.06 0.82 8.56 2.05 0.94-0.36 4.77-3.11-0.07-1.01-8.38-1.37-5.76 2.98z"></path>
        <path id="path11702" sodipodi:nodetypes="ccccccccc" style="fill-rule:evenodd;fill:#fefefd" d="m479.02 736.09l5.7-3.24-0.09 0.73-4.86 3.05-0.72 0.29-0.72-0.29-7.73-1.81 0.07-0.68 8.35 1.95z"></path>
        <path id="path11704" sodipodi:nodetypes="cccccccc" style="fill-rule:evenodd;fill:#5c575b" d="m460.42 732.1l-0.06 0.81 8.56 2.06 0.94-0.36 4.77-3.11-0.07-1.01-8.38-1.37-5.76 2.98z"></path>
        <path id="path11706" sodipodi:nodetypes="ccccccccc" style="fill-rule:evenodd;fill:#fefefd" d="m468.92 733.94l5.7-3.23-0.09 0.72-4.86 3.06-0.72 0.29-0.72-0.29-7.73-1.81 0.07-0.69 8.35 1.95z"></path>
        <path id="path11708" sodipodi:nodetypes="cccccccc" style="fill-rule:evenodd;fill:#5c575b" d="m450.93 729.65l-0.06 0.82 8.56 2.05 0.94-0.36 4.77-3.11-0.07-1.01-8.38-1.37-5.76 2.98z"></path>
        <path id="path11710" sodipodi:nodetypes="ccccccccc" style="fill-rule:evenodd;fill:#fefefd" d="m459.43 731.49l5.7-3.23-0.09 0.72-4.85 3.06-0.73 0.29-0.72-0.29-7.73-1.81 0.07-0.69 8.35 1.95z"></path>
        <path id="path11712" sodipodi:nodetypes="cccccccc" style="fill-rule:evenodd;fill:#5c575b" d="m483.68 743.42l-0.06 0.82 8.56 2.05 0.94-0.36 4.77-3.1-0.07-1.02-8.38-1.37-5.76 2.98z"></path>
        <path id="path11714" sodipodi:nodetypes="ccccccccc" style="fill-rule:evenodd;fill:#fefefd" d="m492.18 745.27l5.7-3.24-0.09 0.73-4.85 3.05-0.73 0.29-0.72-0.29-7.73-1.8 0.07-0.69 8.35 1.95z"></path>
        <path id="path11716" sodipodi:nodetypes="cccccccc" style="fill-rule:evenodd;fill:#5c575b" d="m473.88 740.97l-0.05 0.82 8.56 2.05 0.94-0.36 4.77-3.1-0.08-1.01-8.38-1.38-5.76 2.98z"></path>
        <path id="path11718" sodipodi:nodetypes="ccccccccc" style="fill-rule:evenodd;fill:#fefefd" d="m482.38 742.82l5.7-3.23-0.08 0.72-4.86 3.05-0.72 0.29-0.72-0.29-7.73-1.8 0.07-0.69 8.34 1.95z"></path>
        <path id="path11720" sodipodi:nodetypes="cccccccc" style="fill-rule:evenodd;fill:#5c575b" d="m463.78 738.83l-0.05 0.82 8.56 2.05 0.94-0.36 4.76-3.11-0.07-1.01-8.38-1.37-5.76 2.98z"></path>
        <path id="path11722" sodipodi:nodetypes="ccccccccc" style="fill-rule:evenodd;fill:#fefefd" d="m472.28 740.68l5.7-3.24-0.09 0.73-4.85 3.05-0.72 0.29-0.72-0.29-7.73-1.81 0.07-0.68 8.34 1.95z"></path>
        <path id="path11724" sodipodi:nodetypes="cccccccc" style="fill-rule:evenodd;fill:#5c575b" d="m453.68 736.69l-0.05 0.82 8.56 2.05 0.94-0.36 4.76-3.11-0.07-1.01-8.38-1.37-5.76 2.98z"></path>
        <path id="path11726" sodipodi:nodetypes="ccccccccc" style="fill-rule:evenodd;fill:#fefefd" d="m462.18 738.53l5.7-3.23-0.09 0.72-4.85 3.06-0.72 0.29-0.72-0.29-7.73-1.81 0.07-0.69 8.34 1.95z"></path>
        <path id="path11728" sodipodi:nodetypes="cccccccc" style="fill-rule:evenodd;fill:#5c575b" d="m444.19 734.24l-0.05 0.82 8.56 2.05 0.94-0.36 4.77-3.11-0.08-1.01-8.38-1.37-5.76 2.98z"></path>
        <path id="path11730" sodipodi:nodetypes="ccccccccc" style="fill-rule:evenodd;fill:#fefefd" d="m452.69 736.09l5.7-3.24-0.08 0.73-4.86 3.05-0.72 0.29-0.72-0.29-7.73-1.81-3.48-1.39 11.89 2.66z"></path>
        <path id="path11732" sodipodi:nodetypes="cccccccc" style="fill-rule:evenodd;fill:#5c575b" d="m545.42 746.92l-0.06 0.82 8.56 2.05 0.94-0.36 4.77-3.11-0.07-1.01-8.38-1.37-5.76 2.98z"></path>
        <path id="path11734" sodipodi:nodetypes="ccccccccc" style="fill-rule:evenodd;fill:#fefefd" d="m553.92 748.77l5.7-3.24-0.09 0.73-4.85 3.05-0.73 0.29-0.72-0.29-7.73-1.81 0.08-0.68 8.34 1.95z"></path>
        <path id="path11736" sodipodi:nodetypes="cccccccc" style="fill-rule:evenodd;fill:#5c575b" d="m535.62 744.47l-0.05 0.82 8.56 2.05 0.94-0.36 4.77-3.11-0.08-1.01-8.37-1.37-5.77 2.98z"></path>
        <path id="path11738" sodipodi:nodetypes="ccccccccc" style="fill-rule:evenodd;fill:#fefefd" d="m544.13 746.32l5.7-3.24-0.09 0.73-4.86 3.05-0.72 0.29-0.72-0.29-7.73-1.81 0.07-0.68 8.35 1.95z"></path>
        <path id="path11740" sodipodi:nodetypes="cccccccc" style="fill-rule:evenodd;fill:#5c575b" d="m525.52 742.33l-0.05 0.82 8.56 2.05 0.94-0.36 4.77-3.11-0.08-1.01-8.38-1.37-5.76 2.98z"></path>
        <path id="path11742" sodipodi:nodetypes="ccccccccc" style="fill-rule:evenodd;fill:#fefefd" d="m534.03 744.17l5.7-3.23-0.09 0.72-4.86 3.06-0.72 0.29-0.72-0.29-7.73-1.81 0.07-0.69 8.35 1.95z"></path>
        <path id="path11744" sodipodi:nodetypes="cccccccc" style="fill-rule:evenodd;fill:#5c575b" d="m515.42 740.19l-0.05 0.81 8.56 2.06 0.94-0.36 4.77-3.11-0.08-1.01-8.38-1.37-5.76 2.98z"></path>
        <path id="path11746" sodipodi:nodetypes="ccccccccc" style="fill-rule:evenodd;fill:#fefefd" d="m523.92 742.03l5.7-3.23-0.08 0.72-4.86 3.06-0.72 0.28-0.72-0.28-7.73-1.81 0.07-0.69 8.34 1.95z"></path>
        <path id="path11748" sodipodi:nodetypes="cccccccc" style="fill-rule:evenodd;fill:#5c575b" d="m505.93 737.74l-0.05 0.82 8.56 2.05 0.94-0.36 4.77-3.11-0.08-1.01-8.37-1.37-5.77 2.98z"></path>
        <path id="path11750" sodipodi:nodetypes="ccccccccc" style="fill-rule:evenodd;fill:#fefefd" d="m514.44 739.58l5.7-3.23-0.09 0.72-4.86 3.06-0.72 0.29-0.72-0.29-7.73-1.81 0.07-0.69 8.35 1.95z"></path>
        <path id="path11752" sodipodi:nodetypes="cccccccc" style="fill-rule:evenodd;fill:#5c575b" d="m538.69 750.9l-0.06 0.82 8.56 2.05 0.94-0.36 4.77-3.11-0.07-1.01-8.38-1.37-5.76 2.98z"></path>
        <path id="path11754" sodipodi:nodetypes="ccccccccc" style="fill-rule:evenodd;fill:#fefefd" d="m547.19 752.74l5.7-3.23-0.09 0.72-4.86 3.06-0.72 0.29-0.72-0.29-7.73-1.81 0.07-0.69 8.35 1.95z"></path>
        <path id="path11756" sodipodi:nodetypes="cccccccc" style="fill-rule:evenodd;fill:#5c575b" d="m528.89 748.45l-0.05 0.82 8.56 2.05 0.94-0.36 4.76-3.11-0.07-1.01-8.38-1.37-5.76 2.98z"></path>
        <path id="path11758" sodipodi:nodetypes="ccccccccc" style="fill-rule:evenodd;fill:#fefefd" d="m537.39 750.3l5.7-3.24-0.09 0.73-4.85 3.05-0.72 0.29-0.73-0.29-7.73-1.81 0.08-0.68 8.34 1.95z"></path>
        <path id="path11760" sodipodi:nodetypes="cccccccc" style="fill-rule:evenodd;fill:#5c575b" d="m518.79 746.31l-0.05 0.82 8.56 2.05 0.93-0.36 4.77-3.11-0.07-1.01-8.38-1.37-5.76 2.98z"></path>
        <path id="path11762" sodipodi:nodetypes="ccccccccc" style="fill-rule:evenodd;fill:#fefefd" d="m527.29 748.15l5.7-3.23-0.09 0.72-4.85 3.06-0.72 0.29-0.73-0.29-7.73-1.81 0.08-0.69 8.34 1.95z"></path>
        <path id="path11764" sodipodi:nodetypes="cccccccc" style="fill-rule:evenodd;fill:#5c575b" d="m508.69 744.17l-0.06 0.81 8.56 2.06 0.94-0.37 4.77-3.1-0.07-1.01-8.38-1.38-5.76 2.99z"></path>
        <path id="path11766" sodipodi:nodetypes="ccccccccc" style="fill-rule:evenodd;fill:#fefefd" d="m517.19 746.01l5.7-3.23-0.09 0.72-4.85 3.05-0.72 0.29-0.73-0.29-7.73-1.8 0.08-0.69 8.34 1.95z"></path>
        <path id="path11768" sodipodi:nodetypes="cccccccc" style="fill-rule:evenodd;fill:#5c575b" d="m499.2 741.72l-0.05 0.81 8.56 2.06 0.94-0.36 4.76-3.11-0.07-1.01-8.38-1.37-5.76 2.98z"></path>
        <path id="path11770" sodipodi:nodetypes="ccccccccc" style="fill-rule:evenodd;fill:#fefefd" d="m507.7 743.56l5.7-3.23-0.09 0.72-4.85 3.06-0.72 0.28-0.73-0.28-7.73-1.81 0.08-0.69 8.34 1.95z"></path>
        <path id="path11772" sodipodi:nodetypes="cccccccc" style="fill-rule:evenodd;fill:#5c575b" d="m531.95 755.49l-0.05 0.82 8.56 2.05 0.94-0.36 4.76-3.11-0.07-1.01-8.38-1.37-5.76 2.98z"></path>
        <path id="path11774" sodipodi:nodetypes="ccccccccc" style="fill-rule:evenodd;fill:#fefefd" d="m540.45 757.34l5.7-3.24-0.09 0.73-4.85 3.05-0.72 0.29-0.72-0.29-7.73-1.81 0.07-0.68 8.34 1.95z"></path>
        <path id="path11776" sodipodi:nodetypes="cccccccc" style="fill-rule:evenodd;fill:#5c575b" d="m522.16 753.04l-0.06 0.82 8.56 2.05 0.94-0.36 4.77-3.1-0.07-1.02-8.38-1.37-5.76 2.98z"></path>
        <path id="path11778" sodipodi:nodetypes="ccccccccc" style="fill-rule:evenodd;fill:#fefefd" d="m530.66 754.89l5.7-3.24-0.09 0.73-4.85 3.05-0.73 0.29-0.72-0.29-7.73-1.8 0.07-0.69 8.35 1.95z"></path>
        <path id="path11780" sodipodi:nodetypes="cccccccc" style="fill-rule:evenodd;fill:#5c575b" d="m512.06 750.9l-0.06 0.82 8.56 2.05 0.94-0.36 4.77-3.11-0.07-1.01-8.38-1.37-5.76 2.98z"></path>
        <path id="path11782" sodipodi:nodetypes="ccccccccc" style="fill-rule:evenodd;fill:#fefefd" d="m520.56 752.74l5.7-3.23-0.09 0.72-4.86 3.06-0.72 0.29-0.72-0.29-7.73-1.81 0.07-0.69 8.35 1.95z"></path>
        <path id="path11784" sodipodi:nodetypes="cccccccc" style="fill-rule:evenodd;fill:#5c575b" d="m501.96 748.76l-0.06 0.81 8.56 2.06 0.94-0.36 4.77-3.11-0.07-1.01-8.38-1.37-5.76 2.98z"></path>
        <path id="path11786" sodipodi:nodetypes="ccccccccc" style="fill-rule:evenodd;fill:#fefefd" d="m510.46 750.6l5.7-3.23-0.09 0.72-4.86 3.06-0.72 0.28-0.72-0.28-7.73-1.81 0.07-0.69 8.35 1.95z"></path>
        <path id="path11788" sodipodi:nodetypes="cccccccc" style="fill-rule:evenodd;fill:#5c575b" d="m492.47 746.31l-0.06 0.82 8.56 2.05 0.94-0.36 4.77-3.11-0.07-1.01-8.38-1.37-5.76 2.98z"></path>
        <path id="path11790" sodipodi:nodetypes="ccccccccc" style="fill-rule:evenodd;fill:#fefefd" d="m500.97 748.15l5.7-3.23-0.09 0.72-4.85 3.06-0.73 0.29-0.72-0.29-7.73-1.81 0.07-0.69 8.35 1.95z"></path>
      </g>
      <g id="g12276" transform="matrix(1 0 0 1.0766 -146.57 -175.71)">
        <path id="path11916" sodipodi:nodetypes="cccccccc" style="fill-rule:evenodd;fill:#5c575b" d="m571.84 609.69l-0.06 0.72 9.72 1.81 1.07-0.32 5.41-2.74-0.08-0.89-9.52-1.21-6.54 2.63z"></path>
        <path id="path11918" sodipodi:nodetypes="ccccccccc" style="fill-rule:evenodd;fill:#fefefd" d="m581.5 611.31l6.47-2.84-0.1 0.63-5.52 2.69-0.82 0.26-0.82-0.26-8.78-1.59 0.09-0.6 9.48 1.71z"></path>
        <path id="path11920" sodipodi:nodetypes="cccccccc" style="fill-rule:evenodd;fill:#5c575b" d="m560.71 607.53l-0.06 0.72 9.72 1.81 1.07-0.32 5.42-2.73-0.09-0.9-9.51-1.2-6.55 2.62z"></path>
        <path id="path11922" sodipodi:nodetypes="ccccccccc" style="fill-rule:evenodd;fill:#fefefd" d="m570.37 609.16l6.47-2.85-0.1 0.64-5.51 2.69-0.82 0.25-0.82-0.25-8.78-1.59 0.08-0.61 9.48 1.72z"></path>
        <path id="path11924" sodipodi:nodetypes="cccccccc" style="fill-rule:evenodd;fill:#5c575b" d="m549.24 605.64l-0.06 0.72 9.72 1.81 1.07-0.32 5.41-2.73-0.08-0.89-9.52-1.21-6.54 2.62z"></path>
        <path id="path11926" sodipodi:nodetypes="ccccccccc" style="fill-rule:evenodd;fill:#fefefd" d="m558.9 607.27l6.47-2.85-0.1 0.64-5.52 2.69-0.82 0.25-0.82-0.25-8.78-1.59 0.09-0.61 9.48 1.72z"></path>
        <path id="path11928" sodipodi:nodetypes="cccccccc" style="fill-rule:evenodd;fill:#5c575b" d="m537.76 603.76l-0.06 0.72 9.73 1.81 1.06-0.32 5.42-2.74-0.08-0.89-9.52-1.21-6.55 2.63z"></path>
        <path id="path11930" sodipodi:nodetypes="ccccccccc" style="fill-rule:evenodd;fill:#fefefd" d="m547.42 605.38l6.48-2.85-0.11 0.64-5.51 2.69-0.82 0.26-0.82-0.26-8.78-1.59 0.08-0.61 9.48 1.72z"></path>
        <path id="path11932" sodipodi:nodetypes="cccccccc" style="fill-rule:evenodd;fill:#5c575b" d="m526.99 601.6l-0.07 0.72 9.73 1.81 1.06-0.32 5.42-2.74-0.08-0.89-9.52-1.21-6.54 2.63z"></path>
        <path id="path11934" sodipodi:nodetypes="ccccccccc" style="fill-rule:evenodd;fill:#fefefd" d="m536.64 603.22l6.48-2.84-0.1 0.63-5.52 2.69-0.82 0.26-0.82-0.26-8.78-1.59 0.08-0.6 9.48 1.71z"></path>
        <path id="path11936" sodipodi:nodetypes="cccccccc" style="fill-rule:evenodd;fill:#5c575b" d="m564.19 613.19l-0.06 0.72 9.72 1.81 1.07-0.32 5.41-2.73-0.08-0.89-9.52-1.21-6.54 2.62z"></path>
        <path id="path11938" sodipodi:nodetypes="ccccccccc" style="fill-rule:evenodd;fill:#fefefd" d="m573.85 614.82l6.47-2.85-0.1 0.64-5.51 2.69-0.82 0.25-0.83-0.25-8.78-1.59 0.09-0.61 9.48 1.72z"></path>
        <path id="path11940" sodipodi:nodetypes="cccccccc" style="fill-rule:evenodd;fill:#5c575b" d="m553.06 611.04l-0.06 0.72 9.72 1.81 1.07-0.32 5.42-2.74-0.08-0.89-9.52-1.21-6.55 2.63z"></path>
        <path id="path11942" sodipodi:nodetypes="ccccccccc" style="fill-rule:evenodd;fill:#fefefd" d="m562.72 612.66l6.47-2.85-0.1 0.64-5.51 2.69-0.82 0.26-0.82-0.26-8.78-1.59 0.08-0.61 9.48 1.72z"></path>
        <path id="path11944" sodipodi:nodetypes="cccccccc" style="fill-rule:evenodd;fill:#5c575b" d="m541.59 609.15l-0.06 0.72 9.72 1.81 1.07-0.32 5.41-2.74-0.08-0.89-9.52-1.21-6.54 2.63z"></path>
        <path id="path11946" sodipodi:nodetypes="ccccccccc" style="fill-rule:evenodd;fill:#fefefd" d="m551.25 610.78l6.47-2.85-0.1 0.63-5.51 2.69-0.82 0.26-0.83-0.26-8.78-1.59 0.09-0.6 9.48 1.72z"></path>
        <path id="path11948" sodipodi:nodetypes="cccccccc" style="fill-rule:evenodd;fill:#5c575b" d="m530.11 607.26l-0.06 0.72 9.73 1.81 1.06-0.32 5.42-2.73-0.08-0.9-9.52-1.2-6.55 2.62z"></path>
        <path id="path11950" sodipodi:nodetypes="ccccccccc" style="fill-rule:evenodd;fill:#fefefd" d="m539.77 608.89l6.48-2.85-0.1 0.64-5.52 2.69-0.82 0.25-0.82-0.25-8.78-1.59 0.08-0.61 9.48 1.72z"></path>
        <path id="path11952" sodipodi:nodetypes="cccccccc" style="fill-rule:evenodd;fill:#5c575b" d="m519.34 605.1l-0.07 0.72 9.73 1.81 1.07-0.31 5.41-2.74-0.08-0.89-9.52-1.21-6.54 2.62z"></path>
        <path id="path11954" sodipodi:nodetypes="ccccccccc" style="fill-rule:evenodd;fill:#fefefd" d="m528.99 606.73l6.48-2.85-0.1 0.64-5.52 2.69-0.82 0.25-0.82-0.25-8.78-1.59 0.08-0.61 9.48 1.72z"></path>
        <path id="path11956" sodipodi:nodetypes="cccccccc" style="fill-rule:evenodd;fill:#5c575b" d="m556.54 617.24l-0.06 0.72 9.72 1.81 1.07-0.32 5.41-2.74-0.08-0.89-9.52-1.21-6.54 2.63z"></path>
        <path id="path11958" sodipodi:nodetypes="ccccccccc" style="fill-rule:evenodd;fill:#fefefd" d="m566.2 618.86l6.47-2.84-0.1 0.63-5.51 2.69-0.82 0.26-0.82-0.26-8.79-1.59 0.09-0.6 9.48 1.71z"></path>
        <path id="path11960" sodipodi:nodetypes="cccccccc" style="fill-rule:evenodd;fill:#5c575b" d="m545.41 615.08l-0.06 0.72 9.73 1.81 1.06-0.32 5.42-2.73-0.08-0.9-9.52-1.2-6.55 2.62z"></path>
        <path id="path11962" sodipodi:nodetypes="ccccccccc" style="fill-rule:evenodd;fill:#fefefd" d="m555.07 616.71l6.48-2.85-0.11 0.64-5.51 2.69-0.82 0.25-0.82-0.25-8.78-1.59 0.08-0.61 9.48 1.72z"></path>
        <path id="path11964" sodipodi:nodetypes="cccccccc" style="fill-rule:evenodd;fill:#5c575b" d="m533.94 613.19l-0.06 0.72 9.72 1.81 1.07-0.32 5.41-2.73-0.08-0.89-9.52-1.21-6.54 2.62z"></path>
        <path id="path11966" sodipodi:nodetypes="ccccccccc" style="fill-rule:evenodd;fill:#fefefd" d="m543.6 614.82l6.47-2.85-0.1 0.64-5.51 2.69-0.82 0.25-0.82-0.25-8.79-1.59 0.09-0.61 9.48 1.72z"></path>
        <path id="path11968" sodipodi:nodetypes="cccccccc" style="fill-rule:evenodd;fill:#5c575b" d="m522.47 611.31l-0.07 0.72 9.73 1.81 1.06-0.32 5.42-2.74-0.08-0.89-9.52-1.21-6.54 2.63z"></path>
        <path id="path11970" sodipodi:nodetypes="ccccccccc" style="fill-rule:evenodd;fill:#fefefd" d="m532.12 612.93l6.48-2.85-0.1 0.64-5.52 2.69-0.82 0.26-0.82-0.26-8.78-1.59 0.08-0.61 9.48 1.72z"></path>
        <path id="path11972" sodipodi:nodetypes="cccccccc" style="fill-rule:evenodd;fill:#5c575b" d="m511.69 609.15l-0.07 0.72 9.73 1.81 1.07-0.32 5.41-2.74-0.08-0.89-9.52-1.21-6.54 2.63z"></path>
        <path id="path11974" sodipodi:nodetypes="ccccccccc" style="fill-rule:evenodd;fill:#fefefd" d="m521.34 610.78l6.48-2.85-0.1 0.63-5.52 2.69-0.82 0.26-0.82-0.26-8.78-1.59 0.08-0.6 9.48 1.72z"></path>
        <path id="path11984" sodipodi:nodetypes="cccccccc" style="fill-rule:evenodd;fill:#5c575b" d="m604.07 616.28l-0.06 0.72 9.73 1.81 1.06-0.32 5.42-2.74-0.08-0.89-9.52-1.21-6.55 2.63z"></path>
        <path id="path11986" sodipodi:nodetypes="ccccccccc" style="fill-rule:evenodd;fill:#fefefd" d="m613.73 617.9l6.48-2.85-0.1 0.64-5.52 2.69-0.82 0.26-0.82-0.26-8.78-1.59 0.08-0.61 9.48 1.72z"></path>
        <path id="path11988" sodipodi:nodetypes="cccccccc" style="fill-rule:evenodd;fill:#5c575b" d="m592.6 614.39l-0.06 0.72 9.72 1.81 1.07-0.32 5.42-2.74-0.09-0.89-9.52-1.21-6.54 2.63z"></path>
        <path id="path11990" sodipodi:nodetypes="ccccccccc" style="fill-rule:evenodd;fill:#fefefd" d="m602.26 616.01l6.47-2.84-0.1 0.63-5.51 2.69-0.82 0.26-0.82-0.26-8.78-1.59 0.08-0.6 9.48 1.71z"></path>
        <path id="path11992" sodipodi:nodetypes="cccccccc" style="fill-rule:evenodd;fill:#5c575b" d="m581.82 612.23l-0.06 0.72 9.72 1.81 1.07-0.32 5.42-2.73-0.09-0.9-9.51-1.2-6.55 2.62z"></path>
        <path id="path11994" sodipodi:nodetypes="ccccccccc" style="fill-rule:evenodd;fill:#fefefd" d="m591.48 613.86l6.47-2.85-0.1 0.64-5.51 2.69-0.82 0.25-0.82-0.25-8.78-1.6 0.08-0.6 9.48 1.72z"></path>
        <path id="path12004" sodipodi:nodetypes="cccccccc" style="fill-rule:evenodd;fill:#5c575b" d="m596.43 619.78l-0.07 0.72 9.73 1.81 1.06-0.32 5.42-2.73-0.08-0.9-9.52-1.2-6.54 2.62z"></path>
        <path id="path12006" sodipodi:nodetypes="ccccccccc" style="fill-rule:evenodd;fill:#fefefd" d="m606.08 621.41l6.48-2.85-0.1 0.64-5.52 2.69-0.82 0.25-0.82-0.25-8.78-1.59 0.08-0.61 9.48 1.72z"></path>
        <path id="path12008" sodipodi:nodetypes="cccccccc" style="fill-rule:evenodd;fill:#5c575b" d="m584.95 617.89l-0.06 0.72 9.72 1.81 1.07-0.32 5.42-2.73-0.09-0.89-9.51-1.21-6.55 2.62z"></path>
        <path id="path12010" sodipodi:nodetypes="ccccccccc" style="fill-rule:evenodd;fill:#fefefd" d="m594.61 619.52l6.47-2.85-0.1 0.64-5.51 2.69-0.82 0.25-0.82-0.25-8.78-1.59 0.08-0.61 9.48 1.72z"></path>
        <path id="path12012" sodipodi:nodetypes="cccccccc" style="fill-rule:evenodd;fill:#5c575b" d="m574.17 615.74l-0.06 0.72 9.73 1.81 1.06-0.32 5.42-2.74-0.08-0.89-9.52-1.21-6.55 2.63z"></path>
        <path id="path12014" sodipodi:nodetypes="ccccccccc" style="fill-rule:evenodd;fill:#fefefd" d="m583.83 617.36l6.48-2.85-0.11 0.64-5.51 2.69-0.82 0.26-0.82-0.26-8.78-1.59 0.08-0.61 9.48 1.72z"></path>
        <path id="path12024" sodipodi:nodetypes="cccccccc" style="fill-rule:evenodd;fill:#5c575b" d="m588.78 623.83l-0.07 0.72 9.73 1.81 1.06-0.32 5.42-2.74-0.08-0.89-9.52-1.21-6.54 2.63z"></path>
        <path id="path12026" sodipodi:nodetypes="ccccccccc" style="fill-rule:evenodd;fill:#fefefd" d="m598.43 625.45l6.48-2.85-0.1 0.64-5.52 2.69-0.82 0.26-0.82-0.26-8.78-1.59 0.08-0.61 9.48 1.72z"></path>
        <path id="path12028" sodipodi:nodetypes="cccccccc" style="fill-rule:evenodd;fill:#5c575b" d="m577.3 621.94l-0.06 0.72 9.72 1.81 1.07-0.32 5.42-2.74-0.09-0.89-9.51-1.21-6.55 2.63z"></path>
        <path id="path12030" sodipodi:nodetypes="ccccccccc" style="fill-rule:evenodd;fill:#fefefd" d="m586.96 623.56l6.47-2.84-0.1 0.63-5.51 2.69-0.82 0.26-0.82-0.26-8.78-1.59 0.08-0.6 9.48 1.71z"></path>
        <path id="path12032" sodipodi:nodetypes="cccccccc" style="fill-rule:evenodd;fill:#5c575b" d="m566.52 619.78l-0.06 0.72 9.73 1.81 1.06-0.32 5.42-2.73-0.08-0.9-9.52-1.2-6.55 2.62z"></path>
        <path id="path12034" sodipodi:nodetypes="ccccccccc" style="fill-rule:evenodd;fill:#fefefd" d="m576.18 621.41l6.48-2.85-0.11 0.64-5.51 2.69-0.82 0.25-0.82-0.25-8.78-1.59 0.08-0.61 9.48 1.72z"></path>
        <path id="path12036" sodipodi:nodetypes="cccccccc" style="fill-rule:evenodd;fill:#5c575b" d="m549.22 620.85l-0.06 0.72 9.72 1.81 1.07-0.32 5.41-2.73-0.08-0.89-9.52-1.21-6.54 2.62z"></path>
        <path id="path12038" sodipodi:nodetypes="ccccccccc" style="fill-rule:evenodd;fill:#fefefd" d="m558.88 622.48l6.47-2.85-0.1 0.64-5.52 2.69-0.82 0.25-0.82-0.25-8.78-1.59 0.09-0.61 9.48 1.72z"></path>
        <path id="path12040" sodipodi:nodetypes="cccccccc" style="fill-rule:evenodd;fill:#5c575b" d="m538.09 618.7l-0.06 0.72 9.72 1.8 1.07-0.31 5.42-2.74-0.09-0.89-9.51-1.21-6.55 2.63z"></path>
        <path id="path12042" sodipodi:nodetypes="ccccccccc" style="fill-rule:evenodd;fill:#fefefd" d="m547.75 620.32l6.47-2.85-0.1 0.64-5.51 2.69-0.82 0.25-0.82-0.25-8.78-1.59 0.08-0.61 9.48 1.72z"></path>
        <path id="path12044" sodipodi:nodetypes="cccccccc" style="fill-rule:evenodd;fill:#5c575b" d="m526.62 616.81l-0.06 0.72 9.72 1.81 1.07-0.32 5.41-2.74-0.08-0.89-9.52-1.21-6.54 2.63z"></path>
        <path id="path12046" sodipodi:nodetypes="ccccccccc" style="fill-rule:evenodd;fill:#fefefd" d="m536.28 618.43l6.47-2.84-0.1 0.63-5.52 2.69-0.82 0.26-0.82-0.26-8.78-1.59 0.09-0.6 9.48 1.71z"></path>
        <path id="path12048" sodipodi:nodetypes="cccccccc" style="fill-rule:evenodd;fill:#5c575b" d="m515.14 614.92l-0.06 0.72 9.73 1.81 1.06-0.32 5.42-2.74-0.08-0.89-9.52-1.21-6.55 2.63z"></path>
        <path id="path12050" sodipodi:nodetypes="ccccccccc" style="fill-rule:evenodd;fill:#fefefd" d="m524.8 616.55l6.48-2.85-0.11 0.63-5.51 2.69-0.82 0.26-0.82-0.26-8.78-1.59 0.08-0.6 9.48 1.72z"></path>
        <path id="path12052" sodipodi:nodetypes="cccccccc" style="fill-rule:evenodd;fill:#5c575b" d="m504.37 612.76l-0.07 0.72 9.73 1.81 1.06-0.32 5.42-2.73-0.08-0.89-9.52-1.21-6.54 2.62z"></path>
        <path id="path12054" sodipodi:nodetypes="ccccccccc" style="fill-rule:evenodd;fill:#fefefd" d="m514.02 614.39l6.48-2.85-0.1 0.64-5.52 2.69-0.82 0.25-0.82-0.25-8.78-1.59 0.08-0.61 9.48 1.72z"></path>
        <path id="path12056" sodipodi:nodetypes="cccccccc" style="fill-rule:evenodd;fill:#5c575b" d="m541.57 624.36l-0.06 0.72 9.72 1.81 1.07-0.32 5.41-2.74-0.08-0.89-9.52-1.21-6.54 2.63z"></path>
        <path id="path12058" sodipodi:nodetypes="ccccccccc" style="fill-rule:evenodd;fill:#fefefd" d="m551.23 625.98l6.47-2.84-0.1 0.63-5.51 2.69-0.83 0.26-0.82-0.26-8.78-1.59 0.09-0.6 9.48 1.71z"></path>
        <path id="path12060" sodipodi:nodetypes="cccccccc" style="fill-rule:evenodd;fill:#5c575b" d="m530.44 622.2l-0.06 0.72 9.72 1.81 1.07-0.32 5.42-2.73-0.09-0.9-9.51-1.21-6.55 2.63z"></path>
        <path id="path12062" sodipodi:nodetypes="ccccccccc" style="fill-rule:evenodd;fill:#fefefd" d="m540.1 623.83l6.47-2.85-0.1 0.64-5.51 2.69-0.82 0.25-0.82-0.25-8.78-1.6 0.08-0.6 9.48 1.72z"></path>
        <path id="path12064" sodipodi:nodetypes="cccccccc" style="fill-rule:evenodd;fill:#5c575b" d="m518.97 620.31l-0.06 0.72 9.72 1.81 1.07-0.32 5.41-2.73-0.08-0.89-9.52-1.21-6.54 2.62z"></path>
        <path id="path12066" sodipodi:nodetypes="ccccccccc" style="fill-rule:evenodd;fill:#fefefd" d="m528.63 621.94l6.47-2.85-0.1 0.64-5.51 2.69-0.83 0.25-0.82-0.25-8.78-1.59 0.09-0.61 9.48 1.72z"></path>
        <path id="path12068" sodipodi:nodetypes="cccccccc" style="fill-rule:evenodd;fill:#5c575b" d="m507.49 618.43l-0.06 0.72 9.73 1.8 1.06-0.31 5.42-2.74-0.08-0.89-9.52-1.21-6.55 2.63z"></path>
        <path id="path12070" sodipodi:nodetypes="ccccccccc" style="fill-rule:evenodd;fill:#fefefd" d="m517.15 620.05l6.48-2.85-0.1 0.64-5.52 2.69-0.82 0.26-0.82-0.26-8.78-1.59 0.08-0.61 9.48 1.72z"></path>
        <path id="path12072" sodipodi:nodetypes="cccccccc" style="fill-rule:evenodd;fill:#5c575b" d="m496.72 616.27l-0.07 0.72 9.73 1.81 1.06-0.32 5.42-2.74-0.08-0.89-9.52-1.21-6.54 2.63z"></path>
        <path id="path12074" sodipodi:nodetypes="ccccccccc" style="fill-rule:evenodd;fill:#fefefd" d="m506.37 617.89l6.48-2.84-0.1 0.63-5.52 2.69-0.82 0.26-0.82-0.26-8.78-1.59 0.08-0.6 9.48 1.71z"></path>
        <path id="path12076" sodipodi:nodetypes="cccccccc" style="fill-rule:evenodd;fill:#5c575b" d="m533.92 628.4l-0.06 0.72 9.72 1.81 1.07-0.32 5.41-2.73-0.08-0.89-9.52-1.21-6.54 2.62z"></path>
        <path id="path12078" sodipodi:nodetypes="ccccccccc" style="fill-rule:evenodd;fill:#fefefd" d="m543.58 630.03l6.47-2.85-0.1 0.64-5.51 2.69-0.82 0.25-0.82-0.25-8.79-1.59 0.09-0.61 9.48 1.72z"></path>
        <path id="path12080" sodipodi:nodetypes="cccccccc" style="fill-rule:evenodd;fill:#5c575b" d="m522.79 626.25l-0.06 0.72 9.73 1.8 1.06-0.31 5.42-2.74-0.08-0.89-9.52-1.21-6.55 2.63z"></path>
        <path id="path12082" sodipodi:nodetypes="ccccccccc" style="fill-rule:evenodd;fill:#fefefd" d="m532.45 627.87l6.48-2.85-0.11 0.64-5.51 2.69-0.82 0.26-0.82-0.26-8.78-1.59 0.08-0.61 9.48 1.72z"></path>
        <path id="path12084" sodipodi:nodetypes="cccccccc" style="fill-rule:evenodd;fill:#5c575b" d="m511.32 624.36l-0.06 0.72 9.72 1.81 1.07-0.32 5.41-2.74-0.08-0.89-9.52-1.21-6.54 2.63z"></path>
        <path id="path12086" sodipodi:nodetypes="ccccccccc" style="fill-rule:evenodd;fill:#fefefd" d="m520.98 625.98l6.47-2.84-0.1 0.63-5.51 2.69-0.82 0.26-0.82-0.26-8.79-1.59 0.09-0.6 9.48 1.71z"></path>
        <path id="path12088" sodipodi:nodetypes="cccccccc" style="fill-rule:evenodd;fill:#5c575b" d="m499.85 622.47l-0.07 0.72 9.73 1.81 1.06-0.32 5.42-2.74-0.08-0.89-9.52-1.21-6.54 2.63z"></path>
        <path id="path12090" sodipodi:nodetypes="ccccccccc" style="fill-rule:evenodd;fill:#fefefd" d="m509.5 624.1l6.48-2.85-0.1 0.64-5.52 2.69-0.82 0.25-0.82-0.25-8.78-1.6 0.08-0.6 9.48 1.72z"></path>
        <path id="path12092" sodipodi:nodetypes="cccccccc" style="fill-rule:evenodd;fill:#5c575b" d="m489.07 620.31l-0.07 0.72 9.73 1.81 1.07-0.32 5.41-2.73-0.08-0.89-9.52-1.21-6.54 2.62z"></path>
        <path id="path12094" sodipodi:nodetypes="ccccccccc" style="fill-rule:evenodd;fill:#fefefd" d="m498.72 621.94l6.48-2.85-0.1 0.64-5.52 2.69-0.82 0.25-0.82-0.25-8.78-1.59 0.08-0.61 9.48 1.72z"></path>
        <path id="path12104" sodipodi:nodetypes="cccccccc" style="fill-rule:evenodd;fill:#5c575b" d="m581.45 627.44l-0.06 0.72 9.73 1.81 1.06-0.32 5.42-2.74-0.08-0.89-9.52-1.21-6.55 2.63z"></path>
        <path id="path12106" sodipodi:nodetypes="ccccccccc" style="fill-rule:evenodd;fill:#fefefd" d="m591.11 629.07l6.48-2.85-0.1 0.63-5.52 2.69-0.82 0.26-0.82-0.26-8.78-1.59 0.08-0.6 9.48 1.72z"></path>
        <path id="path12108" sodipodi:nodetypes="cccccccc" style="fill-rule:evenodd;fill:#5c575b" d="m569.98 625.55l-0.06 0.72 9.72 1.81 1.07-0.32 5.42-2.73-0.09-0.89-9.52-1.21-6.54 2.62z"></path>
        <path id="path12110" sodipodi:nodetypes="ccccccccc" style="fill-rule:evenodd;fill:#fefefd" d="m579.64 627.18l6.47-2.85-0.1 0.64-5.51 2.69-0.82 0.25-0.82-0.25-8.78-1.59 0.08-0.61 9.48 1.72z"></path>
        <path id="path12112" sodipodi:nodetypes="cccccccc" style="fill-rule:evenodd;fill:#5c575b" d="m559.2 623.4l-0.06 0.72 9.72 1.8 1.07-0.31 5.42-2.74-0.09-0.89-9.51-1.21-6.55 2.63z"></path>
        <path id="path12114" sodipodi:nodetypes="ccccccccc" style="fill-rule:evenodd;fill:#fefefd" d="m568.86 625.02l6.47-2.85-0.1 0.64-5.51 2.69-0.82 0.25-0.82-0.25-8.78-1.59 0.08-0.61 9.48 1.72z"></path>
        <path id="path12124" sodipodi:nodetypes="cccccccc" style="fill-rule:evenodd;fill:#5c575b" d="m573.81 630.95l-0.07 0.72 9.73 1.8 1.06-0.31 5.42-2.74-0.08-0.89-9.52-1.21-6.54 2.63z"></path>
        <path id="path12126" sodipodi:nodetypes="ccccccccc" style="fill-rule:evenodd;fill:#fefefd" d="m583.46 632.57l6.48-2.85-0.1 0.64-5.52 2.69-0.82 0.25-0.82-0.25-8.78-1.59 0.08-0.61 9.48 1.72z"></path>
        <path id="path12128" sodipodi:nodetypes="cccccccc" style="fill-rule:evenodd;fill:#5c575b" d="m562.33 629.06l-0.06 0.72 9.72 1.81 1.07-0.32 5.42-2.74-0.09-0.89-9.51-1.21-6.55 2.63z"></path>
        <path id="path12130" sodipodi:nodetypes="ccccccccc" style="fill-rule:evenodd;fill:#fefefd" d="m571.99 630.68l6.47-2.84-0.1 0.63-5.51 2.69-0.82 0.26-0.82-0.26-8.78-1.59 0.08-0.6 9.48 1.71z"></path>
        <path id="path12132" sodipodi:nodetypes="cccccccc" style="fill-rule:evenodd;fill:#5c575b" d="m551.55 626.9l-0.06 0.72 9.72 1.81 1.07-0.32 5.42-2.74-0.08-0.89-9.52-1.21-6.55 2.63z"></path>
        <path id="path12134" sodipodi:nodetypes="ccccccccc" style="fill-rule:evenodd;fill:#fefefd" d="m561.21 628.53l6.47-2.85-0.1 0.64-5.51 2.69-0.82 0.25-0.82-0.25-8.78-1.6 0.08-0.6 9.48 1.72z"></path>
        <path id="path12144" sodipodi:nodetypes="cccccccc" style="fill-rule:evenodd;fill:#5c575b" d="m566.16 634.99l-0.07 0.72 9.73 1.81 1.06-0.32 5.42-2.74-0.08-0.89-9.52-1.21-6.54 2.63z"></path>
        <path id="path12146" sodipodi:nodetypes="ccccccccc" style="fill-rule:evenodd;fill:#fefefd" d="m575.81 636.62l6.48-2.85-0.1 0.64-5.52 2.69-0.82 0.25-0.82-0.25-8.78-1.6 0.08-0.6 9.48 1.72z"></path>
        <path id="path12148" sodipodi:nodetypes="cccccccc" style="fill-rule:evenodd;fill:#5c575b" d="m554.68 633.1l-0.06 0.72 9.72 1.81 1.07-0.32 5.42-2.73-0.09-0.89-9.51-1.21-6.55 2.62z"></path>
        <path id="path12150" sodipodi:nodetypes="ccccccccc" style="fill-rule:evenodd;fill:#fefefd" d="m564.34 634.73l6.47-2.85-0.1 0.64-5.51 2.69-0.82 0.25-0.82-0.25-8.78-1.59 0.08-0.61 9.48 1.72z"></path>
        <path id="path12152" sodipodi:nodetypes="cccccccc" style="fill-rule:evenodd;fill:#5c575b" d="m543.9 630.95l-0.06 0.72 9.73 1.8 1.06-0.31 5.42-2.74-0.08-0.89-9.52-1.21-6.55 2.63z"></path>
        <path id="path12154" sodipodi:nodetypes="ccccccccc" style="fill-rule:evenodd;fill:#fefefd" d="m553.56 632.57l6.48-2.85-0.11 0.64-5.51 2.69-0.82 0.25-0.82-0.25-8.78-1.59 0.08-0.61 9.48 1.72z"></path>
      </g>
      <path id="path12374" style="fill-rule:evenodd;stroke:#000000;stroke-width:1px;fill:#5c575b" d="m252.7 458.79l-16.76 8.38-4.97 2.17-3.72-1.86 25.45-8.69z"></path>
      <text id="text12617" style="font-size:10.009px;font-family:Bitstream Vera Sans Mono;fill:#00b800;line-height:125%" space="preserve" sodipodi:linespacing="125%" transform="matrix(1.1529 .069027 -.47236 .83908 0 0)" y="307.40585" x="433.62375">
        <tspan id="tspan12621" sodipodi:role="line" x="433.62375" y="307.40585">tux@linux#</tspan>
      </text>
    </g>
  </g>
  <metadata>
    <rdf:rdf>
      <cc:work>
        <dc:format>image/svg+xml</dc:format>
        <dc:type rdf:resource="http://purl.org/dc/dcmitype/StillImage"></dc:type>
        <cc:license rdf:resource="http://creativecommons.org/licenses/publicdomain/"></cc:license>
        <dc:publisher>
          <cc:agent rdf:about="http://openclipart.org/">
            <dc:title>Openclipart</dc:title>
          </cc:agent>
        </dc:publisher>
        <dc:title>notebook</dc:title>
        <dc:date>2009-06-03T04:55:14</dc:date>
        <dc:description>from the old OCAL site</dc:description>
        <dc:source>https://openclipart.org/detail/26427/notebook-by-anonymous</dc:source>
        <dc:creator>
          <cc:agent>
            <dc:title>Anonymous</dc:title>
          </cc:agent>
        </dc:creator>
        <dc:subject>
          <rdf:bag>
            <rdf:li>computer</rdf:li>
            <rdf:li>electronics</rdf:li>
            <rdf:li>laptop</rdf:li>
            <rdf:li>notebook</rdf:li>
          </rdf:bag>
        </dc:subject>
      </cc:work>
      <cc:license rdf:about="http://creativecommons.org/licenses/publicdomain/">
        <cc:permits rdf:resource="http://creativecommons.org/ns#Reproduction"></cc:permits>
        <cc:permits rdf:resource="http://creativecommons.org/ns#Distribution"></cc:permits>
        <cc:permits rdf:resource="http://creativecommons.org/ns#DerivativeWorks"></cc:permits>
      </cc:license>
    </rdf:rdf>
  </metadata>
</svg>
